<?xml version="1.0" encoding="UTF-8"?>
<svg width="24px" height="24px" viewBox="0 0 24 24" version="1.1" xmlns="http://www.w3.org/2000/svg" xmlns:xlink="http://www.w3.org/1999/xlink">
    <g id="Design" stroke="none" stroke-width="1" fill="none" fill-rule="evenodd">
        <g id="Camera-detail" transform="translate(-499.000000, -189.000000)" fill="#000000">
            <path d="M511,196 C512.380619,196 513.630834,196.559943 514.53542,197.46458 C515.440006,198.369217 516,199.619457 516,201 C516,202.380543 515.440057,203.630834 514.53542,204.53542 C513.630783,205.440006 512.380543,206 511,206 C509.619457,206 508.369166,205.440057 507.46458,204.53542 C506.559994,203.630783 506,202.380543 506,201 C506,199.619457 506.559943,198.369166 507.46458,197.46458 C508.369217,196.559994 509.619457,196 511,196 Z M513.797616,192.449983 C514.021068,192.522478 514.236582,192.602915 514.444141,192.68832 C514.65766,192.776705 514.866226,192.874025 515.070785,192.9773 L517.536682,191.154012 C517.732325,191.009024 518.001453,191.032857 518.168309,191.200685 L518.169303,191.199691 L520.801166,193.831445 C520.982905,194.013177 520.989859,194.303163 520.825001,194.493833 L519.023502,196.930824 C519.12778,197.135398 519.22411,197.344934 519.312493,197.557442 C519.398893,197.764995 519.478342,197.980501 519.550841,198.20394 L522.58389,198.658777 C522.825217,198.693535 523,198.90208 522.999008,199.139418 L523,199.139418 L523,202.861551 C523,203.113792 522.807337,203.322336 522.561034,203.346157 L519.550866,203.797995 C519.478368,204.021437 519.397927,204.236942 519.312519,204.444493 C519.224131,204.658003 519.126806,204.86656 519.023527,205.071111 L520.846891,207.536906 C520.991885,207.732541 520.96805,208.001658 520.800215,208.168507 L520.80121,208.169501 L518.169346,210.801255 C517.987607,210.982986 517.697609,210.989939 517.506931,210.825089 L515.069839,209.023664 C514.865257,209.127938 514.655712,209.224264 514.443196,209.312643 C514.235634,209.39904 514.02012,209.478486 513.79667,209.550981 L513.341815,212.583905 C513.307055,212.825222 513.098502,213 512.861154,212.999007 L512.861154,213 L509.138868,213 C508.886616,213 508.678063,212.807344 508.654241,212.561052 L508.202385,209.551009 C507.978933,209.478514 507.763419,209.398076 507.55586,209.312671 C507.342341,209.224287 507.133775,209.126967 506.929216,209.023692 L504.463319,210.84698 C504.267676,210.991968 503.998548,210.968134 503.831692,210.800307 L503.830698,210.801298 L501.198835,208.169544 C501.017096,207.987812 501.010143,207.697826 501.175,207.507156 L502.976499,205.070165 C502.872221,204.865591 502.775891,204.656055 502.687508,204.443547 C502.601108,204.235994 502.521659,204.020489 502.449161,203.797049 L499.416111,203.342212 C499.174784,203.307454 499,203.098909 499.000993,202.861571 L499,202.861571 L499,199.139439 C499,198.887197 499.192663,198.678653 499.438966,198.654832 L502.449135,198.202995 C502.521633,197.979552 502.601083,197.764047 502.687483,197.556496 C502.775871,197.342987 502.873195,197.134429 502.976474,196.929878 L501.15311,194.464083 C501.008116,194.268448 501.031951,193.999332 501.199786,193.832483 L501.198792,193.831491 L503.830655,191.199737 C504.012394,191.018005 504.302392,191.011052 504.49307,191.175903 L506.92917,192.976336 C507.133752,192.873057 507.343297,192.775736 507.556831,192.687357 C507.764393,192.60096 507.979907,192.521515 508.203356,192.449019 L508.658212,189.416095 C508.692971,189.174778 508.901525,189 509.138873,189.000994 L509.138873,189 L512.861159,189 C513.113411,189 513.321964,189.192656 513.345786,189.438948 L513.797642,192.448991 L513.797616,192.449983 Z M514.062489,193.601548 C513.795026,193.490607 513.526574,193.394523 513.259111,193.31726 C513.063965,193.277638 512.906467,193.120142 512.875757,192.912115 L512.438894,190 L509.560123,190 L509.12326,192.912115 L509.12128,192.912115 C509.094533,193.094375 508.964766,193.252876 508.775558,193.307345 C508.496202,193.38758 508.216871,193.486633 507.935536,193.603526 C507.659172,193.71744 507.389731,193.848191 507.13018,193.991808 C506.969705,194.078976 506.766631,194.072044 506.610114,193.95615 L504.240605,192.204874 L502.20396,194.241427 L503.93949,196.590011 C504.062325,196.738594 504.089069,196.952554 503.991,197.132825 C503.847363,197.393328 503.717603,197.662756 503.602701,197.938145 C503.491754,198.205596 503.395666,198.474035 503.31741,198.741486 C503.277786,198.936624 503.120283,199.094115 502.912247,199.124824 L500,199.561666 L500,202.440308 L502.912247,202.877151 L502.912247,202.879131 C503.094516,202.905876 503.253023,203.035638 503.307495,203.224837 C503.387733,203.504181 503.486791,203.7835 503.60369,204.064821 C503.717608,204.341173 503.848365,204.610602 503.991989,204.870141 L503.990997,204.870141 C504.079161,205.030609 504.071236,205.234663 503.955337,205.391172 L502.203983,207.760575 L504.240628,209.797128 L506.589317,208.061676 C506.737907,207.938847 506.951877,207.912104 507.132155,208.010169 C507.39267,208.153799 507.662111,208.283553 507.937512,208.398451 C508.204975,208.509392 508.473427,208.605476 508.74089,208.682739 C508.936036,208.722361 509.093534,208.879857 509.124244,209.087884 L509.561106,212 L512.439878,212 L512.876741,209.087884 L512.878721,209.087884 C512.905467,208.905624 513.035235,208.747123 513.224442,208.692654 C513.503799,208.612419 513.78313,208.513366 514.064465,208.396473 C514.340829,208.282559 514.61027,208.151808 514.869821,208.008191 L514.869821,208.009182 C515.030296,207.921023 515.234359,207.928947 515.390875,208.044841 L517.760385,209.796116 L519.79703,207.759563 L518.061499,205.41098 C517.938665,205.262397 517.911921,205.048436 518.00999,204.868166 C518.153627,204.607663 518.283387,204.338234 518.398289,204.062846 C518.509236,203.795395 518.605324,203.526955 518.682591,203.259504 C518.722214,203.064366 518.879718,202.906875 519.087754,202.876167 L522,202.439324 L522,199.560682 L519.087754,199.12384 L519.087754,199.121859 C518.905485,199.095114 518.746978,198.965352 518.692506,198.776153 C518.612267,198.49681 518.513209,198.217491 518.396311,197.936169 C518.282393,197.659817 518.151636,197.390389 518.008012,197.130849 L518.009003,197.130849 C517.92084,196.970381 517.928764,196.766328 518.044663,196.609818 L519.796018,194.240416 L517.759373,192.203863 L515.410684,193.939315 C515.262094,194.062144 515.048124,194.088886 514.867845,193.990824 C514.607331,193.847194 514.33789,193.71744 514.062489,193.602542 L514.062489,193.601548 Z M513.828577,198.171423 C513.104771,197.447618 512.104752,197 511,197 C509.896176,197 508.895179,197.447618 508.171423,198.171423 C507.447618,198.895229 507,199.895248 507,201 C507,202.103824 507.447618,203.104821 508.171423,203.828577 C508.895229,204.552382 509.895248,205 511,205 C512.104752,205 513.104821,204.552382 513.828577,203.828577 C514.552382,203.104771 515,202.104752 515,201 C515,199.895248 514.552382,198.895179 513.828577,198.171423 Z" id="Fill-1"></path>
        </g>
    </g>
</svg>
